<?xml version="1.0" encoding="utf-8"?>
<!-- Generator: Adobe Illustrator 13.0.0, SVG Export Plug-In . SVG Version: 6.00 Build 14948)  -->
<!DOCTYPE svg PUBLIC "-//W3C//DTD SVG 1.1//EN" "http://www.w3.org/Graphics/SVG/1.1/DTD/svg11.dtd">
<svg version="1.1" id="Layer_1" data-name="Layer 1" xmlns="http://www.w3.org/2000/svg" xmlns:xlink="http://www.w3.org/1999/xlink" x="0px" y="0px"
width="70px" height="30px" viewBox="0 0 70 30" enable-background="new 0 0 70 30" xml:space="preserve">
<defs><style>.cls-1{fill:#ff3946;}.cls-2{fill:#314584;}.cls-3{fill:#fff;}</style></defs>
<title>logo</title>
<rect class="cls-1" x="14.0505" y="24.059" width="30.206" height="5.941"/>
<polyline class="cls-2" points="10.844 0 10.844 3.625 16.719 3.625 26.928 3.625 26.928 0"/>
<polygon class="cls-2" points="16.761 20.835 21.136 20.835 21.136 3.625 16.719 3.625 16.761 20.835"/>
<path class="cls-2" d="M39,8.4583c-.1381.1684-.0494.4236,0,.7083a7.2427,7.2427,0,0,1,0,1.0417c-.0248.8106-.126,1.154,0,1.2083.073.0315.152-.0642.4583-.2917,0,0,.0191-.0142.625-.4167a3.8791,3.8791,0,0,1,1.3333-.5,14.0452,14.0452,0,0,1,2.3017-.15,2.32,2.32,0,0,1,.6149.0665,2.4008,2.4008,0,0,1,.5417.2083,1.2936,1.2936,0,0,1,.625.5c.0667.1286.0067.1039.125.5.05.1683.2235.6662.1667.5l-.0417.5a3.8411,3.8411,0,0,0-.8333,0c-.3368.0369-.3986.0892-.8333.1667-.3956.07-.4726.05-1.125.125-.426.049-.6391.0736-.9167.125-.3012.0558-.3253.0778-1.5.4167a3.132,3.132,0,0,0-1,.375,3.7614,3.7614,0,0,0-.5417.5,6.3405,6.3405,0,0,0-.75.8333,3.4431,3.4431,0,0,0-.4167,1.3333,5.3231,5.3231,0,0,0-.125,1.1667A3.9538,3.9538,0,0,0,38,18.9167a3.4883,3.4883,0,0,0,.4583.7917,3.44,3.44,0,0,0,.8333.75,2.8484,2.8484,0,0,0,1.25.5833c.1333.0178.21.0138.6136.058.362.04.5.0646.6232.0779a3.421,3.421,0,0,0,1.4541-.2337,3.6847,3.6847,0,0,0,1.0646-.4674,4.4655,4.4655,0,0,0,.8569-.8049,3.6575,3.6575,0,0,0,.491-.6145c.0511-.0931.1-.1984.1322-.19.028.0069.0264.1027,0,.4933-.01.1506-.0193.2757-.026.3635a2.0477,2.0477,0,0,1,.026.5193c-.0251.32-.1145.4776-.026.5712.0437.0462.1054.05.4284.032.27-.015.4722-.0313.48-.032a6.058,6.058,0,0,1,.8828.0519,7.0348,7.0348,0,0,0,.753-.026,4.4142,4.4142,0,0,1,.597-.03c.259.0177.3423.0655.4157.0043.0933-.0778.029-.2134.026-.6232-.002-.2711.0256-.2767.026-.5972,0-.2689-.019-.4648-.026-.5453a12.9572,12.9572,0,0,1,.026-1.61c.03-.8166-.06-.7978-.0779-1.87-.0185-1.1054.0767-1.145.0779-2.4667a8.27,8.27,0,0,0-.13-1.9474,5.0683,5.0683,0,0,0-.5972-1.5579,4.7262,4.7262,0,0,0-1.0646-1.2463,3.8576,3.8576,0,0,0-1.5579-.8049c-.3788-.0888-.4574-.0368-1.48-.1558-.6057-.07-.695-.1023-.9607-.13-1.95-.202-3.3081.8734-4.31,1.0646A.4267.4267,0,0,0,39,8.4583Z" transform="translate(-6.5305)"/>
<path class="cls-3" d="M45.9981,14.53c-.0923-.14-.4383-.0119-1.0646.1039-.6065.1121-.6033.0511-1.2723.1818a4.7754,4.7754,0,0,0-.9088.2337,2.046,2.046,0,0,0-.8309.4674,1.7685,1.7685,0,0,0-.3895,1.3762,1.8531,1.8531,0,0,0,.5193,1.0905,2.3459,2.3459,0,0,0,2.285.26,2.589,2.589,0,0,0,1.61-1.9474c.0379-.5326.026-.9347.026-.9348a3.4932,3.4932,0,0,1,0-.4414C45.9934,14.6452,46.038,14.591,45.9981,14.53Z" transform="translate(-6.5305)"/>
<polygon class="cls-2" points="49.776 7.65 54.138 7.65 56.605 12.661 59.149 7.65 63.304 7.65 59.02 14.063 63.304 20.835 58.916 20.835 56.397 15.907 53.904 20.835 49.542 20.835 53.93 14.213 49.776 7.65"/>
<rect class="cls-2" x="0.2086" y="7.6496" width="3.8688" height="13.1854"/><path class="cls-2" d="M7.7258,5.1569a3.2187,3.2187,0,0,0,.4933.1558,2.3515,2.3515,0,0,0,.5972.0779,2.2158,2.2158,0,0,0,.8828-.2337,1.9761,1.9761,0,0,0,.5972-.3375,1.74,1.74,0,0,0,.4414-.6232A2.085,2.085,0,0,0,10.92,3.1835a1.95,1.95,0,0,0-.3116-.9088,1.8782,1.8782,0,0,0-.727-.6232,2.37,2.37,0,0,0-.9348-.2337,3.1653,3.1653,0,0,0-.8049.026,1.9831,1.9831,0,0,0-.6491.1818,1.7669,1.7669,0,0,0-.753.8569,2.165,2.165,0,0,0-.2077.9867A1.81,1.81,0,0,0,6.8689,4.56,1.7263,1.7263,0,0,0,7.7258,5.1569Z" transform="translate(-6.5305)"/>
</svg>